<svg xmlns="http://www.w3.org/2000/svg" viewBox="0 0 169 60.67"><defs><style>.a{fill:none;}.b{fill:#cc2427;}.c{fill:#013d5b;}</style></defs><title>Capital One logo</title><rect class="a" y="0.01" width="169" height="60.65"/><path class="b" d="M542.2,525.54h0c-7.2,5.09-15.69,10.43-24.86,16.05l-.36.2a.28.28,0,1,0,.32.44l.28-.16c7.8-4,16.74-8.85,25.71-13.83l.16-.08A10,10,0,0,1,542.2,525.54Zm47.22-38.25c-11.32-12.49-84.34-1.25-115.35,5.54l-.73.16a.32.32,0,0,0-.24.32.24.24,0,0,0,.27.22h.06l.73-.12c25.71-4.57,79.2-10.92,90.68.49,3.52,3.48,2.71,8-1.37,13.26a10.39,10.39,0,0,1,4.45,6.39C583.8,503,594.48,492.87,589.42,487.29Z" transform="translate(-427.5 -481.66)"/><path class="c" d="M546.81,522.26c.12,4.41,2.91,8,6.55,8,7,0,10-8.65,9.82-14.43-.16-4.41-3-8-6.63-8C550.49,507.83,546.57,516.44,546.81,522.26Zm-3.72-.24c-.28-7.52,5.62-15.2,14.15-15.2,5.74,0,9.46,3.84,9.66,9.66.28,7.92-5.22,15.2-14.15,15.2C547,531.68,543.29,527.88,543.09,522Z" transform="translate(-427.5 -481.66)"/><path class="c" d="M462.07,520a5.26,5.26,0,0,1-1.17.32l-2.67.49a4.37,4.37,0,0,0-1.86.57,1.29,1.29,0,0,0-.61.93.85.85,0,0,0,.4.93,3,3,0,0,0,1.7.36,6.55,6.55,0,0,0,1.78-.28,4.12,4.12,0,0,0,1.46-.77,2.06,2.06,0,0,0,.61-.93A5.94,5.94,0,0,0,462.07,520Zm7.44-4.61c0,.69-.16,1.29-.32,2.34l-1.25,7a1.29,1.29,0,0,0,.69,1.46v.28h-7.24v-1.78a16.25,16.25,0,0,1-3.48,1.46,12.86,12.86,0,0,1-3.44.44c-2.34,0-3.68-.24-4.57-1.05a3,3,0,0,1-1.37-2.55,3.88,3.88,0,0,1,.89-2.06,5.46,5.46,0,0,1,1.9-1.37,11.68,11.68,0,0,1,2.91-.81c1.25-.2,3-.4,5.42-.61a6.35,6.35,0,0,0,2.34-.53c.53-.2.69-.4.77-.81a1.16,1.16,0,0,0-1.05-1.33c-2.59-.49-7.44.32-9.95,1l1.33-3.68a65.82,65.82,0,0,1,9.66-.81C467.89,512,469.55,513.53,469.51,515.43Z" transform="translate(-427.5 -481.66)"/><path class="c" d="M490.37,526.55l2.51-14.11h6.91l-2.51,14.11Zm2.91-17.34c.2-1.17,2-2.1,4.08-2.1s3.52.93,3.32,2.1-2,2.1-4.08,2.1S493.08,510.34,493.28,509.2Z" transform="translate(-427.5 -481.66)"/><path class="c" d="M524.25,520.08l-1.17.32-2.71.49a4.37,4.37,0,0,0-1.82.57,1.21,1.21,0,0,0-.61.89.89.89,0,0,0,.36,1,3.23,3.23,0,0,0,1.74.32,6.51,6.51,0,0,0,1.78-.24,4.12,4.12,0,0,0,1.46-.77,2.06,2.06,0,0,0,.61-.93A9.06,9.06,0,0,0,524.25,520.08Zm7.44-4.65c0,.69-.16,1.33-.32,2.34l-1.25,7.08a1.29,1.29,0,0,0,.69,1.46v.24h-7.24v-1.82a14.55,14.55,0,0,1-3.48,1.5,13,13,0,0,1-3.48.4c-2.3,0-3.64-.24-4.57-1.05a2.85,2.85,0,0,1-1.33-2.51,3.84,3.84,0,0,1,.89-2.1,5.38,5.38,0,0,1,1.9-1.33,10.27,10.27,0,0,1,2.87-.81c1.29-.2,3.07-.4,5.46-.61a9.7,9.7,0,0,0,2.34-.53c.49-.2.69-.4.77-.81a1.16,1.16,0,0,0-1.05-1.33c-2.59-.53-7.44.32-9.95.93l1.33-3.64a65.38,65.38,0,0,1,9.66-.81C530.07,512.08,531.73,513.57,531.69,515.43Z" transform="translate(-427.5 -481.66)"/><path class="c" d="M447.55,521.5a25.19,25.19,0,0,1-5.74.61c-3.27,0-5.9-1.62-5.74-4.65.08-2,2.47-6.19,8.45-6.19a9.82,9.82,0,0,1,5.38,1.46l.85-4.89A16.29,16.29,0,0,0,444,506.7c-7.88.08-15.44,3.64-16.37,10.92s8.09,9.26,12.09,9.26c2.3,0,4.73-.12,7-.32Z" transform="translate(-427.5 -481.66)"/><path class="c" d="M503.59,512.36l.49-2.87,7.2-1.54-.77,4.41h3.56l-.69,2.87h-3.44l-2.06,11.32h-7l2.1-11.32h-2.63l.53-2.83h2.71Z" transform="translate(-427.5 -481.66)"/><polygon class="c" points="111.18 44.88 104.15 44.88 107.7 25.24 114.54 25.4 111.18 44.88"/><path class="c" d="M481.27,515.75a4.2,4.2,0,0,0-2.47.81,3.8,3.8,0,0,0-1.33,2.43,3.05,3.05,0,0,0,.36,2.67,2.87,2.87,0,0,0,2.14.81,4.12,4.12,0,0,0,1.78-.36,3.27,3.27,0,0,0,1.33-1.13,5.05,5.05,0,0,0,.77-1.86,2.76,2.76,0,0,0-.49-2.51A2.71,2.71,0,0,0,481.27,515.75ZM468.7,531.44l3.36-18.92h6.06l-.49,2.43a5.74,5.74,0,0,1,2.55-1.82,10.92,10.92,0,0,1,3.92-.81,7.22,7.22,0,0,1,3.72.69,5,5,0,0,1,2.43,2.67,6.79,6.79,0,0,1,.32,3.84,8.37,8.37,0,0,1-3.4,5.54,9.07,9.07,0,0,1-5.9,1.7,8.25,8.25,0,0,1-2.14-.24,4.89,4.89,0,0,1-1.37-.53,6.27,6.27,0,0,1-1.13-1.05l-1.13,6.51Z" transform="translate(-427.5 -481.66)"/><path class="c" d="M593.87,517.49c0-1.13-.61-1.9-1.78-1.9-2.83,0-5.82,5.54-6.35,7.76C590.35,523.36,594,520.61,593.87,517.49Zm.61,8.69.53.36a8.63,8.63,0,0,1-7.48,5.05c-2.71,0-4.89-1.78-5-5.13-.24-6.06,5.46-11.68,10.07-11.68,2,0,3.84.89,3.92,3,.16,4.81-6.59,6.27-11,6.35a5.78,5.78,0,0,0-.16,1.78,3.54,3.54,0,0,0,3.76,3.68C591.52,529.62,593.38,527.88,594.48,526.19Z" transform="translate(-427.5 -481.66)"/><path class="c" d="M566.82,517.33l1.58-.16c.53,0,1,.12,1,.61a20.4,20.4,0,0,1-.65,3l-1.09,4.73c-.4,1.94-.89,4-1.29,5.58h2.75l1.54-7.52c4.77-4.93,6.59-6.55,7.68-6.55a.81.81,0,0,1,.89.89,15.74,15.74,0,0,1-.69,3.4l-1.62,5.46a12.12,12.12,0,0,0-.57,3.15,1.88,1.88,0,0,0,1.82,1.74c2,0,3.52-2.1,4.77-4.16l-.36-.69c-.53.81-1.7,2.63-2.67,2.63-.28,0-.57-.2-.57-.69a8.29,8.29,0,0,1,.4-2.22l1.78-6.43a18.92,18.92,0,0,0,.69-3.52,2,2,0,0,0-1.82-1.74c-1.82,0-4.25,1.33-9.34,7.2H571l.65-2.87c.36-1.58.69-3.19,1-4.33a46.29,46.29,0,0,1-5.86,1.66Z" transform="translate(-427.5 -481.66)"/></svg>